<?xml version="1.0" encoding="UTF-8"?>
<svg xmlns="http://www.w3.org/2000/svg" xmlns:xlink="http://www.w3.org/1999/xlink" viewBox="0 0 1565.58 1668.27">
  <defs>
    <style>
      .cls-1 {
        fill: #36baf1;
      }

      .cls-2 {
        fill: #fff;
      }

      .cls-3 {
        fill: #9eb5c2;
      }

      .cls-4 {
        fill: #707696;
      }

      .cls-5, .cls-6 {
        fill: #b6a9c4;
      }

      .cls-5, .cls-7 {
        mix-blend-mode: multiply;
        opacity: .45;
      }

      .cls-8 {
        isolation: isolate;
      }

      .cls-9 {
        fill: #cad6e4;
      }

      .cls-10 {
        fill: #d7dff5;
        opacity: .6;
      }

      .cls-10, .cls-11 {
        mix-blend-mode: overlay;
      }

      .cls-12 {
        fill: #506879;
      }

      .cls-13 {
        clip-path: url(#clippath-1);
      }

      .cls-11 {
        fill: #25aea6;
      }

      .cls-14 {
        fill: #00e1ed;
      }

      .cls-15 {
        clip-path: url(#clippath);
      }

      .cls-16 {
        fill: none;
      }

      .cls-17 {
        opacity: .25;
      }

      .cls-18 {
        fill: #ff0;
      }
    </style>
    <clipPath id="clippath">
      <polygon class="cls-16" points="380.59 872.42 366.86 509.44 475.64 558.44 489.38 921.42 380.59 872.42"/>
    </clipPath>
    <clipPath id="clippath-1">
      <polygon class="cls-16" points="326.65 862.34 312.91 499.35 421.7 548.35 435.44 911.34 326.65 862.34"/>
    </clipPath>
  </defs>
  <g class="cls-8">
    <g id="Layer_1" data-name="Layer 1">
      <g class="cls-17">
        <path d="M634.45,1589.8c22.75,13.13,22.87,34.43,.27,47.56l-36.24,21.06c-22.6,13.13-59.36,13.13-82.11,0l-399.06-230.4c-22.75-13.13-22.87-34.43-.27-47.56l36.24-21.06c22.6-13.13,59.36-13.13,82.11,0l399.06,230.4Z"/>
      </g>
      <path class="cls-12" d="M643.68,402.44l-2.97,1050.56c-.04,14.39-3,26.32-8.23,35.41-.4,.7-.82,1.38-1.25,2.04-.43,.67-.88,1.32-1.33,1.94-.45,.64-.92,1.25-1.41,1.85-.48,.6-.97,1.17-1.48,1.74-.5,.56-1.01,1.1-1.55,1.63-14.39,14.33-37.66,15.61-63.86,.49l-358.92-207.23c-1.36-.78-2.71-1.6-4.05-2.46-1.34-.86-2.68-1.74-4-2.65-3.97-2.75-7.85-5.8-11.62-9.08-1.26-1.1-2.51-2.22-3.73-3.37-2.47-2.31-4.88-4.71-7.23-7.21-1.17-1.25-2.34-2.53-3.48-3.83-1.71-1.94-3.4-3.94-5.05-5.97-1.1-1.37-2.18-2.74-3.24-4.15-.75-.99-1.5-1.99-2.24-3.01-.82-1.12-1.63-2.25-2.42-3.4-7.57-10.88-14.07-22.68-19.18-34.81-.54-1.27-1.05-2.53-1.54-3.8-3.18-8.03-5.72-16.16-7.54-24.25-.21-.88-.39-1.75-.56-2.63-.09-.39-.17-.78-.24-1.17-.32-1.63-.61-3.25-.88-4.88-.12-.82-.24-1.63-.37-2.43-.83-5.77-1.25-11.47-1.23-17.04l1.6-565.9,.9-316.39,.06-20.85,.17-62.25,.24-85.17c.15-50.04,35.55-70.24,79.1-45.09l39.88,23.02c9.82,5.67,18.58,17.7,22.06,30.25l4.08,14.79c2.51,9.07,7.76,17.89,14.21,24.25,.27,.28,.55,.55,.84,.82,.56,.54,1.14,1.05,1.72,1.54,.59,.5,1.17,.98,1.77,1.42,.29,.22,.6,.44,.89,.66,.9,.65,1.82,1.24,2.75,1.77l182.24,105.21c7.59,4.38,14.6,4.27,19.04,.09,.44-.43,.86-.88,1.25-1.37,.39-.5,.76-1.04,1.09-1.63,.34-.57,.65-1.2,.92-1.86l4.16-10.04c3.52-8.51,12.34-10.39,22.15-4.72l39.87,23.02c8.83,5.1,17.31,11.66,25.24,19.32,.61,.59,1.22,1.19,1.81,1.78,4.22,4.21,8.27,8.72,12.1,13.47,.86,1.06,1.7,2.14,2.54,3.23,7.19,9.33,13.61,19.53,18.98,30.13,.66,1.3,1.31,2.6,1.92,3.92,.97,1.98,1.87,3.97,2.74,5.98,.94,2.13,1.82,4.28,2.67,6.43,.54,1.37,1.05,2.74,1.54,4.12,.38,.99,.73,1.99,1.06,3,1.89,5.51,3.48,11.06,4.72,16.59,.2,.88,.39,1.76,.56,2.63,.1,.39,.17,.78,.24,1.17,.32,1.63,.61,3.25,.88,4.88,.13,.81,.26,1.61,.37,2.43,.82,5.77,1.23,11.48,1.22,17.04Z"/>
      <path class="cls-9" d="M657.08,404.45c-.01-.79-.04-1.59-.07-2.4,0-.28-.02-.57-.04-.85-.06-1.34-.14-2.69-.24-4.05,0-.03,0-.07,0-.1,0-.04,0-.09-.01-.13-.28-3.73-.7-7.49-1.3-11.27-.01-.12-.02-.24-.05-.37,0-.01,0-.04-.01-.05-.07-.46-.17-.93-.25-1.39-.2-1.21-.41-2.42-.64-3.64-.03-.17-.07-.35-.11-.53-.12-.61-.25-1.23-.38-1.84-.2-.94-.39-1.87-.61-2.8-.09-.39-.18-.78-.27-1.17-.21-.92-.44-1.84-.67-2.76-.11-.44-.21-.88-.33-1.32-.17-.65-.33-1.3-.51-1.96-.05-.2-.12-.41-.17-.61-.18-.66-.37-1.31-.56-1.97-.09-.32-.18-.63-.27-.95-.16-.55-.32-1.1-.49-1.65-.26-.86-.51-1.71-.79-2.57-.27-.86-.55-1.7-.83-2.56-.05-.15-.1-.28-.15-.43-.53-1.56-1.08-3.13-1.65-4.68-.2-.51-.39-1.03-.57-1.54-.64-1.73-1.33-3.47-2.04-5.2,0-.02-.02-.04-.03-.07-.24-.62-.5-1.23-.76-1.85-.42-1.01-.86-2.02-1.3-3.03-.02-.04-.05-.09-.06-.12-.72-1.65-1.47-3.3-2.24-4.94-.06-.12-.12-.24-.17-.37-.7-1.48-1.42-2.96-2.16-4.44-.04-.07-.07-.15-.11-.22-.01-.02-.02-.05-.04-.07-.44-.87-.89-1.72-1.34-2.59-.44-.86-.89-1.72-1.35-2.58-.04-.06-.06-.12-.1-.18-.23-.43-.46-.84-.7-1.27-.66-1.2-1.32-2.38-1.99-3.57-.27-.47-.54-.94-.82-1.42-.26-.45-.51-.89-.78-1.33-.27-.44-.54-.88-.81-1.33-.55-.92-1.1-1.85-1.68-2.75-.29-.47-.59-.93-.88-1.4-.22-.35-.44-.7-.66-1.05-.59-.9-1.16-1.81-1.76-2.7-.66-1-1.33-1.99-2-2.98-.33-.49-.66-.97-.99-1.45-1.05-1.49-2.12-2.98-3.19-4.45,0-.01-.01-.01-.01-.02-.02-.02-.05-.06-.07-.09-1.21-1.65-2.46-3.28-3.72-4.88-.49-.64-.99-1.25-1.49-1.87-.47-.59-.94-1.16-1.41-1.74-.04-.04-.06-.09-.1-.12-.2-.22-.38-.46-.56-.68-1.2-1.44-2.42-2.86-3.64-4.25-.35-.42-.72-.81-1.08-1.2-.86-.98-1.75-1.94-2.64-2.9-.5-.54-1.01-1.06-1.53-1.6-.77-.81-1.54-1.6-2.32-2.4-.55-.55-1.11-1.1-1.67-1.65-.08-.08-.17-.16-.25-.25-.85-.83-1.7-1.65-2.56-2.45-.42-.4-.85-.8-1.27-1.19-.06-.06-.13-.11-.19-.17-.61-.56-1.22-1.11-1.83-1.65-.08-.07-.16-.14-.24-.22-.61-.54-1.22-1.08-1.83-1.6,0,0-.02-.02-.03-.03-.48-.42-.97-.82-1.46-1.23-.28-.24-.56-.48-.84-.71-.6-.5-1.2-.99-1.8-1.47-.82-.66-1.65-1.31-2.47-1.94-.56-.43-1.12-.86-1.69-1.28-.92-.67-1.83-1.33-2.76-1.99-.47-.34-.94-.68-1.42-1.01-1.38-.95-2.78-1.88-4.17-2.78-.1-.05-.18-.11-.28-.16-1.43-.92-2.87-1.8-4.33-2.63L202.88,42.25c-.72-.42-1.44-.82-2.15-1.21-.15-.09-.31-.16-.45-.24-.21-.11-.4-.22-.61-.33-.98-.53-1.94-1.03-2.91-1.5-.17-.09-.33-.17-.5-.26-.64-.31-1.27-.61-1.91-.91-.42-.21-.82-.39-1.23-.57-.71-.33-1.42-.64-2.13-.94-.57-.24-1.16-.48-1.74-.71-1.08-.44-2.15-.83-3.22-1.21-.22-.07-.43-.16-.65-.23-.53-.17-1.04-.35-1.55-.53-.51-.16-1.03-.33-1.54-.49-.72-.22-1.44-.43-2.16-.62-.57-.16-1.15-.32-1.72-.45-.02-.01-.05-.01-.07-.02-.53-.12-1.05-.24-1.58-.37-.7-.16-1.39-.31-2.08-.44-.02,0-.06-.01-.09-.01-.78-.15-1.55-.28-2.32-.4-.37-.05-.73-.11-1.09-.16-.03,0-.07,0-.1-.01-.72-.1-1.44-.19-2.16-.26-.98-.1-1.95-.17-2.91-.22-.2-.01-.41-.03-.61-.03-.31-.01-.62-.02-.93-.04-.37-.01-.73-.01-1.1-.01h-.01c-.84,0-1.67,0-2.48,.04-.18,.01-.35,.01-.54,.02-.71,.02-1.41,.07-2.1,.13-.04,0-.09,.01-.12,.01-.42,.04-.82,.09-1.24,.13-.33,.04-.66,.09-.99,.13-.06,0-.11,.02-.17,.03-.82,.12-1.63,.24-2.42,.4-.11,.02-.22,.04-.33,.06-.48,.1-.95,.2-1.42,.32-.48,.11-.94,.22-1.42,.35-.11,.02-.23,.06-.35,.1-.02,0-.05,0-.07,.01-.45,.13-.9,.27-1.34,.4-.44,.15-.88,.29-1.31,.44-.21,.06-.4,.13-.61,.21-.35,.13-.7,.27-1.05,.4-.24,.1-.48,.2-.72,.29-.35,.15-.71,.31-1.05,.45-.23,.11-.45,.21-.67,.31-.38,.18-.76,.37-1.14,.55-.18,.1-.37,.18-.55,.28-.51,.27-1.03,.55-1.53,.84-.04,.02-.07,.04-.11,.06-15.96,9.28-25.86,29-25.93,57.02l-.26,88.53-.17,62.25-.06,20.85-.89,316.39-1.61,569.27c-.16,56.41,39.5,125.14,88.62,153.49l365.61,211.08c24.71,14.27,47.1,15.59,63.26,6.2l.27-.16,.68-.4c.13-.09,.26-.17,.39-.26,1.52-.96,2.97-2.02,4.37-3.18,.1-.08,.19-.16,.29-.23,.03-.03,.07-.06,.1-.09,.76-.64,1.5-1.3,2.22-2,.01-.01,.04-.02,.05-.04l.06-.06c.35-.35,.71-.71,1.06-1.08,.04-.05,.07-.09,.13-.13,.31-.34,.64-.7,.95-1.05,.2-.23,.39-.46,.6-.7,.51-.61,1.03-1.24,1.53-1.87,.01-.02,.03-.04,.04-.05,.2-.25,.39-.51,.58-.77,0,0,0-.01,.01-.02,.53-.71,1.04-1.43,1.53-2.18,.13-.2,.27-.39,.4-.6,.32-.5,.64-1,.95-1.53,.31-.51,.61-1.04,.91-1.56,0-.01,.01-.02,.01-.04h0c.57-1.04,1.11-2.12,1.63-3.21,.02-.05,.05-.09,.07-.14,.05-.09,.09-.2,.14-.3,.56-1.21,1.09-2.45,1.58-3.73,.02-.06,.05-.12,.07-.17,.22-.54,.42-1.1,.61-1.65,.21-.56,.39-1.12,.59-1.7,.06-.2,.12-.39,.18-.59,.01-.05,.03-.1,.04-.14,1.68-5.34,2.83-11.24,3.42-17.66,0-.08,.02-.16,.03-.25,.05-.54,.1-1.08,.13-1.63,.09-.98,.15-1.97,.18-2.97,.02-.65,.05-1.3,.07-1.96,.02-.97,.04-1.94,.05-2.93l3-1057.26c0-.79-.01-1.58-.02-2.38ZM299.87,129.01c.05-.29,.11-.57,.18-.83,.07-.27,.17-.51,.29-.75,.18-.33,.39-.62,.64-.87,.16-.16,.34-.31,.53-.42,.19-.12,.39-.21,.61-.29,.1-.04,.21-.06,.33-.09,.22-.05,.47-.07,.71-.07,.81,0,1.74,.27,2.7,.83l58.38,33.7,101.1,58.38c.62,.35,1.22,.82,1.78,1.34,2.46,2.31,4.24,5.97,4.23,9.08-.01,3.84-2.73,5.38-6.06,3.45l-159.47-92.07c-.62-.37-1.22-.82-1.79-1.35-.56-.54-1.09-1.14-1.58-1.78-.32-.44-.62-.89-.89-1.36-.27-.48-.51-.97-.73-1.45-.18-.43-.35-.87-.49-1.31-.35-1.08-.54-2.16-.54-3.19,0-.34,.02-.66,.06-.97Zm340.84,1324c-.04,14.39-3,26.32-8.23,35.41-.4,.7-.82,1.38-1.25,2.04-.43,.67-.88,1.32-1.33,1.94-.45,.64-.92,1.25-1.41,1.85-.48,.6-.97,1.17-1.48,1.74-.5,.56-1.01,1.1-1.55,1.63-14.39,14.33-37.66,15.61-63.86,.49l-358.92-207.23c-1.36-.78-2.71-1.6-4.05-2.46-1.34-.86-2.68-1.74-4-2.65-3.97-2.75-7.85-5.8-11.62-9.08-1.26-1.1-2.51-2.22-3.73-3.37-2.47-2.31-4.88-4.71-7.23-7.21-1.17-1.25-2.34-2.53-3.48-3.83-1.71-1.94-3.4-3.94-5.05-5.97-1.1-1.37-2.18-2.74-3.24-4.15-.75-.99-1.5-1.99-2.24-3.01-.82-1.12-1.63-2.25-2.42-3.4-7.57-10.88-14.07-22.68-19.18-34.81-.54-1.26-1.05-2.53-1.54-3.8-3.18-8.03-5.72-16.16-7.54-24.25-.2-.88-.39-1.75-.56-2.63-.09-.39-.17-.78-.24-1.17-.32-1.63-.61-3.25-.88-4.88-.12-.82-.24-1.63-.37-2.43-.82-5.77-1.23-11.48-1.22-17.04l1.6-565.9,.89-316.39,.06-20.85,.17-62.25,.24-85.17c.15-50.04,35.55-70.24,79.1-45.09l39.88,23.02c9.82,5.67,18.58,17.7,22.06,30.25l4.08,14.79c2.51,9.07,7.76,17.89,14.21,24.25,.27,.28,.56,.55,.84,.82,.56,.53,1.14,1.04,1.72,1.54,.59,.49,1.17,.97,1.77,1.42,.29,.22,.6,.44,.89,.66,.9,.64,1.82,1.22,2.75,1.76l182.24,105.22c7.59,4.38,14.6,4.27,19.04,.09,.44-.42,.86-.87,1.25-1.37,.39-.5,.76-1.04,1.09-1.63,.34-.57,.65-1.2,.92-1.86l4.16-10.04c3.52-8.51,12.34-10.39,22.15-4.72l39.87,23.02c8.83,5.1,17.31,11.66,25.24,19.32,.61,.59,1.22,1.19,1.81,1.78,4.22,4.21,8.27,8.72,12.1,13.47,.86,1.06,1.7,2.14,2.54,3.23,7.19,9.33,13.61,19.53,18.98,30.13,.66,1.3,1.31,2.6,1.92,3.92,.97,1.98,1.87,3.97,2.74,5.98,.94,2.13,1.82,4.28,2.67,6.43,.54,1.37,1.05,2.74,1.54,4.12,.38,.99,.73,1.99,1.06,3,1.89,5.51,3.48,11.06,4.72,16.59,.2,.88,.39,1.76,.56,2.63,.1,.39,.17,.78,.24,1.17,.33,1.63,.62,3.25,.88,4.88,.13,.81,.26,1.61,.37,2.43,.83,5.77,1.25,11.47,1.23,17.04l-2.98,1050.56Z"/>
      <path class="cls-4" d="M465.34,218.6c3.33,1.92,6.03,6.6,6.02,10.43-.01,3.84-2.73,5.38-6.06,3.45l-159.47-92.07c-3.33-1.92-6.03-6.59-6.02-10.43,.01-3.83,2.73-5.38,6.06-3.45l159.47,92.07Z"/>
      <path class="cls-3" d="M611.34,218.18l-40.81,36.36c-.68-.42-1.37-.82-2.05-1.21L202.88,42.24c-.87-.5-1.74-.98-2.6-1.45-.2-.11-.4-.21-.61-.32-.97-.53-1.93-1.03-2.9-1.5-.17-.09-.34-.17-.5-.26-1.06-.53-2.1-1.01-3.15-1.48-.23-.11-.45-.21-.68-.31-1.06-.48-2.13-.93-3.18-1.35-1.08-.44-2.14-.83-3.22-1.21-.21-.09-.43-.16-.64-.23-1.04-.37-2.08-.7-3.09-1.01-.18-.05-.35-.1-.54-.16-1.1-.32-2.19-.62-3.28-.9-.02,0-.05-.01-.07-.01-1.11-.28-2.21-.53-3.3-.73-.17-.04-.34-.07-.51-.11-1.15-.22-2.29-.4-3.41-.56-.18-.02-.35-.05-.53-.07-1.16-.15-2.32-.27-3.46-.35-.23-.01-.46-.02-.68-.05-.38-.01-.75-.04-1.13-.05l-.92-.04c-.38-.01-.75-.01-1.11-.01-.29-.01-.59-.01-.88-.01-.54,.01-1.08,.02-1.61,.05-.17,0-.35,.01-.53,.01-.71,.04-1.42,.09-2.12,.15-.12,.01-.23,.02-.35,.04-.67,.07-1.33,.15-1.99,.24-.21,.02-.43,.06-.65,.09-.65,.1-1.3,.22-1.93,.34-.11,.01-.23,.04-.34,.06-.95,.2-1.9,.42-2.82,.67-.15,.04-.29,.07-.43,.11-.9,.26-1.79,.54-2.67,.83-.2,.07-.4,.15-.6,.22-.35,.13-.71,.27-1.06,.4-.23,.1-.48,.18-.71,.28-.35,.16-.71,.31-1.06,.46-.22,.1-.44,.2-.67,.31-.38,.17-.76,.37-1.12,.55-.18,.1-.37,.18-.55,.28-.28,.15-.56,.29-.83,.44L191.31,6c.54-.32,1.09-.61,1.65-.91,.17-.09,.37-.18,.54-.27,.38-.2,.76-.38,1.14-.56,.22-.1,.45-.2,.67-.29,.35-.16,.7-.32,1.05-.46,.24-.1,.49-.2,.72-.29,.35-.13,.7-.27,1.05-.39,.13-.05,.26-.1,.38-.15,.07-.03,.16-.05,.23-.07,.87-.31,1.76-.59,2.65-.83,.15-.05,.29-.09,.44-.12,.93-.24,1.87-.48,2.82-.67,.02,0,.04-.01,.06-.01,.1-.01,.18-.02,.28-.05,.64-.12,1.28-.23,1.93-.33,.22-.04,.43-.06,.65-.1,.66-.09,1.32-.17,1.99-.23,.09-.01,.18-.02,.27-.04h.09c.7-.06,1.39-.11,2.1-.15,.18-.01,.37-.01,.54-.02,.54-.01,1.08-.04,1.61-.04,.1,0,.18-.01,.27-.01,.21,0,.4,.01,.61,.01,.37,0,.73,.01,1.1,.01,.32,.01,.62,.02,.93,.04,.38,.02,.75,.04,1.11,.06,.15,.01,.28,.01,.43,.02,.09,0,.18,.01,.27,.02,1.14,.09,2.29,.2,3.46,.35,.07,.01,.15,.01,.22,.02,.1,.01,.2,.04,.29,.05,1.14,.15,2.27,.34,3.42,.56,.06,.01,.12,.01,.18,.02,.11,.02,.22,.05,.33,.07,1.09,.22,2.19,.46,3.29,.73h.02s.04,.01,.06,.02c1.09,.27,2.18,.57,3.28,.9,.11,.04,.22,.06,.33,.09,.07,.02,.13,.05,.21,.07,1.01,.31,2.05,.65,3.08,1,.1,.04,.18,.06,.28,.1,.12,.04,.24,.09,.37,.14,2.1,.76,4.23,1.6,6.39,2.56,.12,.06,.26,.11,.38,.16,.1,.05,.21,.11,.31,.15,1.05,.48,2.09,.97,3.14,1.48,.05,.02,.11,.05,.16,.07,.11,.06,.23,.12,.34,.18,.97,.49,1.94,.99,2.91,1.5,.13,.07,.26,.13,.39,.21,.07,.04,.15,.09,.22,.12,.87,.46,1.74,.95,2.6,1.45l356.76,205.98Z"/>
      <path class="cls-4" d="M708.81,376.78l-3,1057.26v.26c-.01,1.45-.05,2.9-.11,4.3,0,.11-.01,.22-.01,.33-.02,.45-.06,.89-.09,1.34-.05,.84-.09,1.69-.16,2.52-.01,.24-.05,.49-.07,.73-.06,.62-.12,1.23-.2,1.85-.06,.56-.1,1.14-.17,1.7-.04,.33-.1,.65-.15,.99-.09,.65-.18,1.3-.29,1.93-.06,.44-.12,.89-.2,1.32-.06,.38-.15,.72-.22,1.1-.13,.71-.28,1.42-.43,2.13-.07,.37-.13,.76-.22,1.13-.09,.34-.18,.66-.27,.99-.2,.83-.4,1.64-.62,2.45-.11,.35-.18,.75-.29,1.1-.13,.46-.28,.92-.43,1.37-.06,.2-.12,.4-.18,.59-.31,.93-.61,1.83-.94,2.73-.09,.21-.17,.42-.24,.62-.11,.29-.23,.57-.34,.86-.38,.95-.78,1.89-1.21,2.81-.07,.18-.16,.37-.23,.55-.04,.06-.07,.13-.1,.21-.51,1.08-1.05,2.12-1.61,3.13,0,.02-.01,.04-.02,.05-.55,1-1.12,1.97-1.72,2.91-.04,.06-.07,.11-.12,.17-.12,.21-.27,.4-.4,.6-.49,.75-1,1.48-1.53,2.18-.21,.29-.42,.56-.64,.84-.5,.65-1.01,1.27-1.53,1.87-.21,.23-.39,.48-.6,.7-.72,.81-1.45,1.58-2.21,2.32-.11,.11-.23,.2-.34,.31-.66,.64-1.33,1.23-2.03,1.82-.26,.21-.51,.42-.77,.62-.6,.48-1.2,.94-1.82,1.38l-.77,.55c-.86,.59-1.74,1.15-2.63,1.68l-51.71,30.05c.89-.53,1.77-1.1,2.63-1.69,.27-.17,.51-.37,.77-.55,.62-.44,1.22-.9,1.82-1.38,.26-.2,.51-.4,.77-.62,.7-.57,1.37-1.19,2.04-1.82,.11-.1,.22-.2,.33-.31,.76-.73,1.5-1.52,2.21-2.31,.21-.23,.4-.46,.6-.7,.53-.61,1.03-1.23,1.53-1.87,.22-.28,.43-.56,.65-.84,.53-.71,1.03-1.43,1.52-2.18,.13-.21,.28-.4,.42-.6,.64-1,1.26-2.03,1.85-3.09,.01-.01,.01-.02,.02-.04,.59-1.08,1.16-2.2,1.7-3.35,.09-.18,.16-.37,.24-.54,.42-.92,.82-1.86,1.2-2.82,.11-.28,.23-.56,.34-.84,.42-1.09,.82-2.21,1.19-3.35,.06-.2,.12-.39,.18-.59,.26-.81,.49-1.65,.72-2.48,.22-.81,.43-1.61,.64-2.43,.17-.7,.33-1.41,.48-2.13,.16-.7,.29-1.41,.43-2.13,.16-.79,.29-1.6,.42-2.42,.11-.64,.21-1.27,.29-1.93,.12-.88,.23-1.79,.33-2.69,.06-.61,.13-1.22,.18-1.83,.1-1.08,.17-2.16,.23-3.26,.02-.45,.06-.88,.09-1.34,.07-1.59,.12-3.22,.12-4.88l3-1057.26c0-1.59-.04-3.18-.09-4.78-.02-.54-.05-1.08-.09-1.61-.05-1.12-.12-2.26-.2-3.39-.05-.57-.09-1.15-.15-1.72-.1-1.2-.22-2.4-.35-3.59-.06-.48-.11-.94-.16-1.42-.21-1.68-.44-3.35-.71-5.04-.04-.22-.07-.44-.11-.65-.24-1.48-.5-2.95-.78-4.43-.12-.59-.24-1.19-.37-1.78-.23-1.12-.46-2.25-.72-3.39-.15-.65-.31-1.3-.45-1.96-.27-1.09-.54-2.19-.83-3.29-.16-.65-.33-1.31-.51-1.96-.32-1.17-.65-2.36-1-3.53-.16-.55-.32-1.1-.48-1.65-.53-1.71-1.06-3.42-1.64-5.12-.04-.15-.1-.28-.15-.43-.53-1.57-1.08-3.13-1.65-4.7-.18-.51-.38-1.01-.57-1.53-.45-1.2-.9-2.38-1.38-3.57-.22-.56-.45-1.14-.67-1.7-.51-1.23-1.03-2.46-1.55-3.69-.2-.44-.38-.88-.56-1.31-.73-1.65-1.48-3.3-2.25-4.94-.2-.42-.39-.82-.59-1.22-.61-1.27-1.22-2.54-1.86-3.8-.45-.89-.92-1.78-1.38-2.67-.48-.93-.94-1.85-1.44-2.76-.22-.43-.46-.86-.7-1.27-.65-1.2-1.32-2.38-1.99-3.57-.27-.48-.54-.94-.81-1.42-.53-.89-1.06-1.77-1.59-2.67-.56-.92-1.11-1.85-1.68-2.76-.51-.82-1.04-1.63-1.55-2.43-.57-.91-1.16-1.81-1.75-2.7-.66-1-1.33-1.99-2.02-2.98-.33-.49-.66-.98-.99-1.45-1.05-1.5-2.1-2.98-3.19-4.45t-.01-.02s-.05-.06-.06-.09c-1.22-1.65-2.46-3.28-3.73-4.89-.98-1.25-1.98-2.49-3-3.72-.18-.23-.37-.46-.56-.7-1.2-1.44-2.41-2.85-3.64-4.25-.35-.4-.72-.79-1.08-1.2-.87-.97-1.75-1.93-2.63-2.89-.51-.54-1.03-1.06-1.53-1.6-.77-.81-1.54-1.61-2.32-2.4-.55-.56-1.11-1.1-1.67-1.65-.76-.75-1.5-1.48-2.27-2.2-.6-.56-1.21-1.12-1.81-1.69-.76-.68-1.5-1.37-2.26-2.04-.61-.55-1.22-1.08-1.85-1.6-.77-.67-1.55-1.33-2.34-1.97-.59-.5-1.19-.99-1.8-1.48-.82-.65-1.64-1.3-2.47-1.93-.56-.43-1.11-.87-1.68-1.28-.92-.68-1.85-1.34-2.76-1.99-.48-.34-.95-.68-1.42-1.01-1.39-.95-2.78-1.88-4.18-2.78-.09-.06-.18-.11-.27-.17-.76-.48-1.53-.95-2.29-1.41l40.81-36.36,8.84,5.1c.29,.17,.59,.34,.88,.51,1.16,.68,2.31,1.39,3.46,2.12,.09,.06,.17,.11,.27,.16,.01,.01,.01,.02,.02,.02,1.27,.81,2.53,1.64,3.78,2.49,.12,.09,.24,.18,.37,.27,.48,.32,.95,.67,1.42,1,.7,.49,1.39,.98,2.08,1.48,.23,.17,.46,.35,.68,.53,.56,.42,1.13,.84,1.69,1.27,.51,.4,1.03,.78,1.54,1.17,.31,.26,.61,.51,.93,.77,.6,.48,1.2,.98,1.8,1.47,.4,.33,.82,.66,1.22,1,.38,.31,.75,.65,1.11,.97,.62,.53,1.22,1.06,1.83,1.6,.33,.29,.67,.57,1,.88,.43,.38,.84,.78,1.26,1.16,.61,.56,1.22,1.12,1.82,1.7,.28,.26,.56,.5,.83,.77,.49,.46,.95,.95,1.44,1.42,.55,.55,1.11,1.1,1.68,1.66,.21,.21,.42,.42,.64,.62,.56,.57,1.11,1.17,1.67,1.77,.51,.53,1.03,1.05,1.53,1.6,.15,.15,.29,.29,.43,.44,.75,.81,1.48,1.63,2.21,2.46,.35,.39,.72,.78,1.08,1.19,.06,.06,.11,.12,.17,.18,1.16,1.32,2.31,2.66,3.44,4.02,.01,.01,.02,.04,.04,.05,.2,.23,.38,.46,.56,.7,.95,1.15,1.91,2.31,2.84,3.5,.05,.07,.11,.15,.16,.22,1.27,1.61,2.52,3.25,3.75,4.92,.01,.01,.02,.04,.04,.05,.01,.02,.01,.04,.02,.05,1.08,1.45,2.14,2.93,3.18,4.44,.33,.48,.66,.97,.99,1.44,.48,.7,.97,1.39,1.43,2.09,.2,.31,.39,.6,.59,.91,.59,.89,1.16,1.78,1.75,2.69,.51,.82,1.04,1.63,1.54,2.45,.57,.92,1.12,1.83,1.69,2.76,.34,.57,.7,1.14,1.04,1.71,.18,.31,.35,.64,.54,.94,.28,.48,.55,.95,.82,1.43,.67,1.17,1.33,2.36,1.99,3.55,.23,.44,.46,.86,.7,1.3,.11,.2,.22,.39,.33,.6,.38,.71,.73,1.43,1.11,2.15,.46,.89,.93,1.77,1.38,2.67,.09,.17,.17,.34,.27,.51,.54,1.09,1.06,2.19,1.59,3.29,.2,.4,.39,.82,.59,1.22,.02,.06,.06,.12,.09,.18,.67,1.43,1.32,2.86,1.96,4.29,.07,.16,.13,.32,.21,.46,.18,.44,.37,.87,.55,1.31,.35,.82,.72,1.64,1.06,2.47,.17,.4,.33,.82,.49,1.23,.23,.56,.46,1.12,.68,1.69,.18,.46,.38,.93,.56,1.39,.28,.72,.54,1.45,.82,2.18,.2,.51,.39,1.03,.57,1.54,.07,.21,.16,.43,.24,.64,.48,1.35,.94,2.69,1.41,4.03,.05,.15,.1,.29,.15,.44,.01,.02,.01,.04,.02,.06,.51,1.53,1,3.06,1.47,4.6,.05,.16,.1,.31,.13,.46,.17,.55,.33,1.11,.49,1.66,.26,.86,.51,1.71,.76,2.57,.09,.32,.16,.64,.24,.95,.18,.66,.34,1.31,.51,1.97,.16,.6,.33,1.2,.48,1.8,.12,.5,.23,.99,.34,1.49,.16,.65,.32,1.3,.45,1.94,.1,.4,.2,.82,.29,1.22,.16,.72,.29,1.44,.44,2.18,.12,.6,.24,1.19,.37,1.78,.04,.22,.09,.45,.13,.67,.23,1.26,.44,2.51,.65,3.75,.04,.21,.07,.43,.11,.64,0,.04,.01,.07,.01,.11,.23,1.49,.45,2.97,.64,4.46,.02,.16,.04,.32,.06,.46,.05,.48,.1,.95,.15,1.42,.1,.83,.2,1.65,.28,2.47,.04,.38,.05,.76,.09,1.14,.05,.56,.1,1.14,.13,1.71,.04,.49,.09,.99,.12,1.48,.04,.64,.06,1.27,.09,1.91,.02,.54,.06,1.09,.07,1.63,.01,.24,.04,.5,.04,.76,.05,1.35,.06,2.68,.06,4.01Z"/>
      <path class="cls-14" d="M577.66,563.41l-.84,296.8v.12c0,.73-.02,1.45-.05,2.16-.01,.05-.01,.11-.01,.16-.01,.23-.02,.45-.05,.68-.02,.42-.04,.84-.07,1.26-.01,.12-.02,.24-.04,.37-.02,.32-.06,.62-.1,.93-.02,.28-.05,.57-.09,.86-.02,.17-.05,.33-.07,.5-.05,.32-.1,.65-.15,.97-.04,.22-.06,.45-.1,.67-.04,.18-.07,.35-.11,.55-.07,.35-.15,.71-.22,1.06-.04,.18-.07,.38-.11,.56-.04,.17-.09,.34-.13,.5-.1,.42-.21,.83-.32,1.22-.05,.18-.09,.38-.15,.56-.04,.13-.09,.24-.12,.38-.15,.48-.31,.95-.46,1.42-.07,.18-.12,.38-.2,.55-.02,.07-.05,.13-.07,.2-.31,.78-.61,1.54-.97,2.27-.01,.02-.01,.05-.02,.07-.26,.54-.53,1.06-.81,1.58h-.01c-.28,.51-.56,1-.87,1.48-.02,.04-.04,.06-.06,.09-.06,.11-.13,.21-.21,.31-.24,.38-.5,.75-.76,1.1-.11,.13-.22,.28-.33,.42-.24,.33-.5,.64-.77,.94-.1,.12-.2,.23-.29,.35-.37,.4-.73,.79-1.11,1.16-.06,.05-.11,.1-.17,.15-.33,.32-.67,.62-1.03,.93-.12,.1-.26,.21-.38,.31-.31,.24-.61,.48-.92,.7-.13,.09-.26,.18-.39,.27-.43,.31-.87,.59-1.32,.86l-18.03,10.47c.45-.26,.89-.54,1.33-.84,.13-.09,.26-.18,.38-.27,.32-.22,.62-.45,.92-.7,.13-.11,.26-.21,.39-.32,.34-.29,.68-.6,1.03-.92,.05-.05,.11-.1,.16-.15,.39-.37,.76-.76,1.11-1.16,.11-.12,.21-.23,.31-.35,.26-.31,.51-.62,.77-.94,.11-.13,.21-.28,.32-.43,.27-.35,.53-.72,.77-1.09,.06-.1,.13-.2,.21-.31,.32-.5,.62-1.01,.93-1.55h0c.29-.55,.57-1.1,.84-1.66,.34-.73,.66-1.49,.95-2.27,.1-.24,.18-.5,.27-.75,.17-.46,.33-.94,.48-1.42,.09-.31,.18-.62,.27-.94,.11-.4,.22-.81,.32-1.22,.09-.35,.16-.71,.24-1.06,.07-.35,.15-.71,.21-1.06,.07-.4,.15-.81,.21-1.22,.06-.32,.11-.65,.15-.98,.06-.44,.12-.89,.17-1.34,.02-.31,.06-.61,.1-.93,.04-.54,.07-1.08,.11-1.64,.01-.22,.04-.44,.04-.67,.04-.81,.06-1.61,.06-2.46l.84-296.79c.01-.79-.01-1.59-.04-2.4-.01-.27-.02-.54-.05-.81-.02-.57-.06-1.14-.1-1.71-.02-.28-.05-.57-.07-.86-.05-.61-.11-1.21-.18-1.81-.02-.24-.05-.48-.07-.71-.11-.84-.22-1.69-.35-2.54-.01-.1-.04-.21-.06-.32-.11-.73-.24-1.48-.39-2.22-.06-.29-.12-.6-.18-.89-.11-.57-.23-1.14-.37-1.71-.07-.32-.15-.65-.22-.98-.13-.55-.27-1.1-.42-1.65-.09-.33-.17-.66-.26-.99-.16-.59-.33-1.17-.5-1.77-.09-.27-.16-.55-.24-.83-.27-.86-.54-1.71-.82-2.57-.02-.07-.05-.15-.07-.21-.27-.8-.55-1.58-.83-2.37-.1-.26-.2-.5-.29-.76-.22-.6-.45-1.2-.7-1.81-.11-.28-.22-.56-.34-.84-.24-.62-.51-1.25-.78-1.87-.09-.21-.18-.43-.27-.65-.37-.83-.75-1.65-1.14-2.48-.1-.21-.2-.42-.29-.62-.31-.64-.61-1.27-.93-1.9-.23-.45-.46-.9-.7-1.34-.22-.43-.44-.86-.67-1.28-.62-1.15-1.26-2.3-1.93-3.44-.22-.39-.45-.77-.68-1.15-.28-.46-.55-.93-.84-1.38-.26-.42-.51-.83-.77-1.23-.29-.45-.59-.91-.88-1.36-.2-.29-.39-.57-.59-.87-.82-1.22-1.66-2.43-2.53-3.61-.01-.02-.04-.04-.05-.06-.61-.82-1.22-1.64-1.86-2.45-.5-.64-1.01-1.26-1.53-1.88-.09-.11-.17-.22-.26-.33-.6-.72-1.21-1.44-1.83-2.14-.17-.2-.35-.39-.54-.59-.44-.5-.88-.99-1.33-1.47-.24-.27-.5-.54-.76-.81-.39-.4-.78-.81-1.17-1.2-.27-.28-.56-.56-.84-.83-.37-.38-.76-.75-1.14-1.11-.31-.28-.6-.56-.9-.84-.18-.16-.35-.32-.54-.48-.2-.18-.4-.37-.61-.55-.31-.27-.61-.54-.92-.81-.39-.33-.78-.66-1.17-.99-.31-.24-.6-.49-.91-.73-.42-.33-.83-.66-1.25-.98-.28-.22-.55-.43-.83-.64-.46-.35-.94-.68-1.41-1.01-.23-.17-.46-.34-.7-.5-.7-.48-1.41-.95-2.1-1.39-.05-.04-.09-.06-.13-.09-.72-.45-1.45-.91-2.18-1.32L126.59,272.44l-13.4-7.74-67.51-38.98c-.66-.38-1.32-.73-1.97-1.08-.24-.12-.48-.24-.72-.38-.49-.24-.98-.48-1.47-.71-.22-.1-.43-.21-.65-.31-.68-.32-1.37-.61-2.05-.88-.68-.28-1.36-.53-2.03-.76-.22-.07-.43-.13-.65-.21-.45-.15-.9-.29-1.36-.43-.27-.07-.53-.15-.79-.21-.42-.12-.82-.22-1.24-.32-.26-.06-.53-.12-.78-.17-.39-.07-.77-.15-1.15-.21-.31-.06-.61-.11-.9-.16-.35-.05-.71-.09-1.06-.12-.32-.04-.65-.07-.97-.1-.31-.02-.61-.04-.93-.05-.38-.02-.76-.04-1.13-.04-.27,0-.54,0-.81,.01-.48,.01-.94,.02-1.41,.06-.24,.02-.49,.04-.73,.06-.71,.07-1.41,.17-2.09,.31-.07,.01-.15,.02-.22,.04-.15,.04-.28,.07-.43,.1-.42,.1-.84,.2-1.26,.32-.2,.05-.39,.12-.6,.18-.33,.11-.66,.21-.99,.33-.4,.15-.79,.32-1.17,.49-.2,.07-.39,.15-.57,.23-.57,.27-1.12,.56-1.68,.88l18.03-10.48s0-.01,.01-.01c.54-.31,1.09-.6,1.65-.86,.2-.1,.38-.17,.57-.24,.39-.17,.78-.34,1.19-.49,.06-.02,.12-.05,.2-.07,.26-.1,.53-.17,.78-.26,.21-.06,.4-.12,.61-.18,.4-.12,.83-.22,1.26-.31,.13-.04,.27-.07,.42-.11h.05c.06-.01,.12-.02,.17-.04,.68-.12,1.38-.22,2.1-.29,.1-.01,.2-.04,.31-.05,.13-.01,.28-.01,.42-.02,.46-.04,.94-.05,1.41-.06,.17,0,.33-.02,.49-.02,.11,0,.21,.01,.32,.01,.38,0,.76,.01,1.14,.04,.22,.01,.43,0,.65,.02,.09,0,.18,.01,.28,.02,.32,.02,.64,.06,.97,.1,.24,.02,.49,.05,.73,.07,.11,.01,.22,.04,.32,.06,.31,.04,.61,.1,.9,.15,.24,.04,.49,.07,.73,.12,.13,.02,.28,.06,.42,.09,.27,.06,.53,.12,.78,.17,.22,.05,.43,.1,.64,.15,.2,.05,.4,.11,.61,.17,.26,.06,.53,.13,.78,.21,.15,.05,.31,.09,.45,.13,.31,.09,.61,.2,.92,.29,.21,.07,.43,.13,.64,.21,.09,.02,.16,.05,.23,.07,.6,.22,1.2,.44,1.81,.68,.59,.23,1.19,.49,1.78,.76,.09,.04,.17,.09,.27,.12,.21,.1,.43,.21,.65,.31,.29,.15,.59,.28,.89,.43,.18,.09,.38,.2,.56,.29,.24,.12,.49,.24,.73,.38,.18,.09,.35,.17,.54,.27,.47,.26,.94,.53,1.42,.79l49.55,28.61,13.4,7.74,400.71,231.35,5.76,3.33,.44,.26c.59,.34,1.16,.7,1.74,1.06,.05,.04,.1,.06,.13,.09t.02,.01c.64,.4,1.26,.82,1.89,1.25,.06,.05,.12,.1,.18,.13,.23,.16,.48,.34,.71,.5,.35,.26,.7,.49,1.05,.75,.11,.09,.22,.18,.34,.27,.28,.21,.56,.43,.84,.64,.26,.2,.51,.39,.77,.6,.16,.12,.32,.26,.47,.38l.92,.73c.2,.17,.4,.33,.61,.5,.18,.16,.37,.33,.55,.49,.32,.27,.62,.54,.93,.81,.17,.15,.33,.29,.5,.44,.21,.2,.42,.39,.64,.59,.31,.28,.61,.56,.92,.86,.13,.12,.27,.26,.42,.38,.24,.23,.48,.48,.72,.72,.28,.28,.56,.55,.84,.83,.1,.11,.21,.21,.32,.32,.28,.28,.56,.59,.84,.88,.26,.27,.51,.54,.77,.81,.07,.07,.15,.15,.21,.23,.38,.4,.75,.82,1.11,1.24,.18,.2,.37,.39,.54,.59,.04,.04,.06,.06,.09,.1,.59,.66,1.16,1.33,1.74,2.02,0,.01,.01,.02,.01,.02,.1,.11,.18,.22,.27,.33,.49,.59,.97,1.17,1.44,1.78,.02,.02,.05,.07,.09,.11,.62,.79,1.25,1.61,1.86,2.43,.01,.02,.02,.04,.04,.06,.87,1.19,1.71,2.38,2.53,3.61,.1,.15,.21,.28,.31,.42,.1,.16,.18,.31,.28,.45,.31,.45,.59,.9,.88,1.36,.27,.42,.53,.82,.78,1.22,.28,.46,.56,.93,.84,1.39,.17,.28,.35,.57,.51,.86,.06,.1,.11,.2,.17,.29,.66,1.14,1.31,2.29,1.93,3.45,.04,.06,.07,.12,.11,.18,.18,.37,.37,.72,.55,1.09,.23,.44,.48,.89,.7,1.35,.05,.09,.09,.17,.13,.26,.27,.55,.54,1.09,.79,1.64,.1,.21,.21,.42,.31,.62,.01,.04,.02,.06,.04,.1,.34,.71,.67,1.43,.99,2.15,.02,.09,.06,.16,.1,.24,.1,.21,.18,.43,.28,.65,.17,.42,.35,.82,.53,1.24,.09,.21,.17,.42,.26,.62,.11,.28,.22,.57,.34,.86,.09,.23,.18,.46,.28,.7l.4,1.1c.1,.26,.2,.5,.29,.76,.04,.11,.09,.22,.12,.33,.24,.67,.48,1.36,.71,2.04,.02,.06,.05,.14,.07,.21,0,.01,.01,.01,.01,.02,.26,.77,.5,1.54,.73,2.31,.02,.07,.05,.16,.07,.23,.09,.28,.16,.56,.24,.83,.12,.44,.26,.87,.38,1.3,.04,.16,.09,.32,.12,.48,.09,.33,.17,.66,.26,.99,.09,.31,.17,.6,.24,.91,.06,.26,.11,.5,.17,.76,.07,.32,.16,.65,.23,.97,.05,.21,.1,.42,.13,.61,.09,.37,.15,.73,.23,1.1,.06,.29,.12,.6,.17,.89,.02,.12,.05,.23,.07,.34,.12,.64,.22,1.26,.33,1.88,.01,.11,.04,.22,.05,.33,.01,.01,.01,.02,.01,.05,.12,.75,.22,1.49,.32,2.24,.01,.09,.02,.16,.02,.24,.04,.23,.06,.48,.09,.71,.05,.42,.1,.83,.13,1.24,.02,.2,.02,.38,.05,.57,.02,.28,.05,.57,.06,.87,.02,.24,.05,.49,.06,.73,.02,.32,.04,.64,.05,.95,.01,.28,.02,.55,.04,.82,0,.13,.01,.26,.01,.39,.02,.67,.04,1.34,.04,2.01Z"/>
      <path class="cls-5" d="M527.4,472.04l-.04,10.91L126.65,251.59l.17-62.25,356.04,205.55c24.67,14.24,44.61,48.78,44.54,77.14Z"/>
      <path class="cls-1" d="M559.63,573.89l-.84,296.79c-.05,18.29-8.41,29.54-20.97,31.4-6.91,1.03-15.09-.79-23.85-5.86l-263.57-152.16-205.87-118.85C19.86,610.95-.09,576.41,0,548.05L.84,251.27c.07-28.35,20.15-39.79,44.82-25.54l469.42,271.02c24.67,14.24,44.61,48.78,44.54,77.14Z"/>
      <path class="cls-11" d="M497.9,747.2L61.38,495.18c-6.05-3.49-10.96-.68-10.98,6.27l-.15,51.07c-.02,6.95,4.86,15.42,10.91,18.92l436.52,252.02c6.05,3.49,10.98,.69,11-6.27l.14-51.07c.02-6.95-4.87-15.43-10.92-18.92Z"/>
      <g>
        <polygon points="246.22 632.34 246.18 647.1 254.2 651.74 254.2 654.12 243.83 648.13 243.88 630.99 246.22 632.34"/>
        <path d="M270.37,651.71c.34,1.24,.5,2.39,.5,3.47,0,1.14-.19,2.14-.55,2.97-.36,.85-.86,1.48-1.5,1.92-.62,.44-1.37,.63-2.23,.61-.86-.02-1.81-.33-2.84-.92-1.05-.6-2.01-1.41-2.87-2.39-.86-.99-1.6-2.07-2.23-3.26-.62-1.17-1.1-2.37-1.43-3.6-.33-1.25-.5-2.41-.5-3.5,0-1.14,.19-2.14,.55-2.99,.36-.84,.86-1.48,1.49-1.92,.64-.44,1.4-.63,2.26-.62,.88,.02,1.8,.33,2.84,.93,1.06,.61,2.01,1.42,2.87,2.42,.86,.99,1.59,2.09,2.21,3.26,.62,1.18,1.08,2.38,1.43,3.62Zm-2.23,4.14c.22-.61,.33-1.3,.33-2.07,0-.83-.11-1.68-.33-2.55-.22-.89-.54-1.74-.94-2.53-.41-.82-.89-1.56-1.47-2.23-.57-.68-1.21-1.23-1.91-1.64-.73-.42-1.38-.61-1.98-.58-.57,.03-1.07,.21-1.46,.56-.41,.35-.72,.84-.93,1.46-.21,.63-.32,1.34-.32,2.11,0,.79,.1,1.65,.32,2.53,.21,.88,.52,1.72,.93,2.54,.41,.81,.89,1.56,1.47,2.24,.57,.68,1.22,1.22,1.93,1.64,.72,.42,1.38,.62,1.96,.59,.58-.02,1.08-.22,1.47-.59,.4-.36,.72-.85,.92-1.48"/>
        <path d="M281.56,652.62c1.4,.81,2.59,1.83,3.54,3.07,.96,1.24,1.67,2.55,2.16,3.97l-1.82,.45c-.41-1.18-.96-2.19-1.64-3.06-.7-.88-1.47-1.55-2.31-2.04-.68-.39-1.31-.57-1.87-.56-.56,.02-1.05,.21-1.44,.56-.4,.34-.72,.83-.93,1.46-.22,.63-.33,1.35-.33,2.18,0,.87,.1,1.74,.34,2.63,.25,.91,.58,1.76,1.01,2.57,.42,.81,.91,1.55,1.5,2.2,.57,.67,1.2,1.19,1.86,1.57,1.51,.87,2.88,.81,4.08-.18v-1.82s-3.12-1.81-3.12-1.81v-2s5.11,2.95,5.11,2.95l-.02,8.66-1.97-1.14v-2.12c-1.21,.8-2.64,.72-4.27-.22-.96-.55-1.87-1.33-2.72-2.3-.85-.99-1.58-2.06-2.19-3.24-.62-1.17-1.12-2.38-1.47-3.64-.35-1.27-.52-2.46-.52-3.59,0-1.15,.18-2.16,.54-3,.36-.84,.86-1.45,1.49-1.9,.62-.43,1.36-.62,2.22-.6,.85,.03,1.79,.35,2.8,.93Z"/>
        <polygon points="294.91 660.48 294.86 677.59 292.51 676.24 292.56 659.12 294.91 660.48"/>
        <polygon points="302.23 664.67 310.72 681.96 310.76 669.63 313.14 671 313.09 688.12 311.13 686.99 302.72 670.02 302.69 682.11 300.32 680.75 300.37 663.6 302.23 664.67"/>
      </g>
      <path class="cls-10" d="M498.17,649.64L61.66,397.61c-6.05-3.49-10.96-.67-10.98,6.29l-.14,51.06c-.02,6.95,4.86,15.41,10.91,18.9l436.52,252.02c6.05,3.49,10.98,.7,11-6.25l.15-51.07c.02-6.95-4.87-15.43-10.92-18.92Z"/>
      <g>
        <path class="cls-2" d="M89.82,445.27l-1.54-.89v-2.23c.02-4.09-2.86-9.08-6.42-11.14-3.56-2.05-6.47-.41-6.48,3.68v2.23s-1.55-.89-1.55-.89c-1.22-.7-2.21-.15-2.22,1.25l-.04,14.43c0,1.41,.98,3.13,2.2,3.83l16,9.24c1.23,.71,2.24,.15,2.24-1.26l.04-14.43c0-1.4-1-3.11-2.23-3.82Zm-6.84,8.9v3.68c-.01,.16-.12,.22-.26,.14l-1.54-.89c-.12-.07-.23-.25-.23-.42v-3.68c-1.05-1.08-1.8-2.69-1.79-4.07,0-1.79,1.27-2.51,2.83-1.6,1.54,.89,2.81,3.08,2.81,4.86,0,1.38-.76,2.12-1.82,1.98Zm2.39-11.47l-7.08-4.09v-2.23c.01-2.23,1.6-3.15,3.56-2.02,1.94,1.12,3.53,3.88,3.53,6.11v2.23Z"/>
        <polygon class="cls-2" points="128.35 474.46 125.52 474.08 125.66 470.74 123.6 469.55 123.71 473.04 120.9 470.16 120.37 471.8 123.15 474.42 121.37 476.41 122.86 478.44 124.64 476.37 126.36 480.46 127.89 480.18 126.08 476.12 128.88 476.71 128.35 474.46"/>
        <polygon class="cls-2" points="141.65 482.14 138.84 481.77 138.96 478.41 136.91 477.23 137.02 480.72 134.2 477.84 133.68 479.48 136.46 482.11 134.67 484.09 136.15 486.12 137.93 484.04 139.66 488.14 141.2 487.86 139.39 483.8 142.18 484.39 141.65 482.14"/>
        <polygon class="cls-2" points="154.96 489.82 152.14 489.45 152.26 486.09 150.2 484.9 150.31 488.39 147.5 485.52 146.97 487.16 149.75 489.78 147.96 491.77 149.46 493.8 151.23 491.72 152.96 495.82 154.5 495.54 152.69 491.48 155.48 492.07 154.96 489.82"/>
        <polygon class="cls-2" points="194.85 512.85 192.03 512.48 192.16 509.13 190.11 507.94 190.21 511.43 187.4 508.55 186.87 510.19 189.65 512.82 187.86 514.8 189.35 516.83 191.12 514.75 192.86 518.86 194.39 518.57 192.58 514.51 195.37 515.1 194.85 512.85"/>
        <polygon class="cls-2" points="208.15 520.53 205.33 520.16 205.46 516.8 203.4 515.62 203.5 519.1 200.69 516.23 200.16 517.87 202.94 520.49 201.15 522.48 202.65 524.51 204.44 522.43 206.15 526.53 207.69 526.25 205.88 522.19 208.67 522.78 208.15 520.53"/>
        <polygon class="cls-2" points="221.44 528.2 218.62 527.83 218.75 524.48 216.7 523.29 216.81 526.78 213.99 523.91 213.46 525.55 216.24 528.17 214.46 530.16 215.95 532.19 217.72 530.11 219.45 534.21 220.98 533.92 219.17 529.86 221.96 530.45 221.44 528.2"/>
        <polygon class="cls-2" points="235.27 538.14 234.75 535.89 231.93 535.52 232.06 532.16 230 530.97 230.11 534.46 227.29 531.59 226.76 533.23 229.53 535.84 227.75 537.83 229.25 539.86 231.03 537.79 232.74 541.88 234.29 541.61 232.49 537.55 235.27 538.14"/>
        <polygon class="cls-2" points="168.26 497.5 165.43 497.12 165.55 493.77 163.5 492.58 163.61 496.07 160.79 493.19 160.27 494.84 163.05 497.46 161.27 499.45 162.74 501.47 164.53 499.4 166.26 503.5 167.79 503.21 165.98 499.15 168.77 499.74 168.26 497.5"/>
        <polygon class="cls-2" points="181.56 505.18 178.73 504.8 178.87 501.45 176.79 500.26 176.91 503.75 174.09 500.87 173.57 502.52 176.34 505.13 174.56 507.12 176.06 509.15 177.82 507.07 179.55 511.17 181.09 510.89 179.29 506.84 182.07 507.42 181.56 505.18"/>
      </g>
      <path class="cls-10" d="M498.45,550.51L61.94,298.49c-6.05-3.49-10.96-.69-10.98,6.26l-.15,51.06c-.02,6.95,4.86,15.42,10.91,18.91l436.53,252.03c6.05,3.49,10.97,.68,10.99-6.27l.14-51.06c.02-6.95-4.87-15.41-10.92-18.91Z"/>
      <g>
        <path class="cls-2" d="M162.8,390.75l.25,.17v1.9c-.91-.5-1.72-.68-2.41-.58-.69,.11-1.19,.52-1.48,1.25l-.02,7.64-1.82-1.05,.04-12.38,1.7,.98v2.88c.37-.64,.86-1.06,1.47-1.28,.59-.22,1.25-.11,1.94,.29l.34,.2Z"/>
        <path class="cls-2" d="M201.4,412.91c.63,.36,1.13,.79,1.55,1.29,.42,.5,.75,1.06,1.01,1.68,.24,.6,.43,1.27,.53,1.96,.11,.69,.16,1.42,.16,2.16l-.02,7.39-1.82-1.05,.02-6.93c0-1.29-.17-2.36-.54-3.18-.35-.83-.89-1.43-1.62-1.85-.74-.43-1.4-.51-1.99-.24-.6,.26-1.02,.8-1.26,1.63l-.02,7.45-1.82-1.05,.02-6.93c0-1.31-.17-2.38-.53-3.2-.34-.81-.88-1.4-1.6-1.82-.72-.42-1.39-.52-1.98-.26-.61,.25-1.01,.8-1.27,1.64l-.02,7.46-1.82-1.05,.04-12.38,1.66,.96v2.67c.44-.67,1-1.04,1.71-1.13,.69-.1,1.5,.11,2.38,.61,.91,.52,1.63,1.23,2.16,2.1,.53,.85,.85,1.77,.98,2.72,.97-1.45,2.33-1.67,4.11-.65Z"/>
        <path class="cls-2" d="M185.46,413.77c0,.5,.19,.86,.58,1.09v1.8c-.16-.05-.27-.09-.4-.16-.12-.06-.24-.11-.35-.17-.3-.17-.6-.45-.88-.8-.29-.37-.46-.78-.48-1.25l-.03-.9c-.26,.22-.53,.41-.85,.5-.31,.1-.65,.15-1,.14-.37-.03-.73-.1-1.12-.23-.37-.11-.74-.29-1.11-.5-.54-.31-1.04-.7-1.49-1.14-.45-.47-.85-.96-1.17-1.5-.33-.53-.58-1.08-.77-1.65-.18-.58-.28-1.12-.28-1.64,0-.6,.11-1.05,.35-1.41,.22-.36,.52-.61,.93-.69,.4-.12,.89-.1,1.45,.04,.56,.15,1.17,.4,1.83,.79,.51,.29,1.04,.66,1.57,1.08,.54,.41,1.02,.85,1.42,1.27v-.99c0-1.02-.24-1.94-.72-2.8-.49-.87-1.21-1.57-2.11-2.09-1.08-.62-2.22-.8-3.43-.53l-.58-1.69c.69-.15,1.39-.15,2.09-.01,.68,.12,1.4,.4,2.15,.83,1.38,.8,2.46,1.85,3.25,3.18s1.19,2.79,1.19,4.37v5.06Zm-1.83-2.27v-1.83c-.43-.42-.87-.84-1.34-1.2-.46-.38-.93-.7-1.37-.95-.93-.54-1.68-.76-2.26-.64-.56,.11-.83,.55-.84,1.3,0,.32,.04,.64,.15,.99,.12,.37,.28,.72,.47,1.06,.2,.33,.46,.66,.78,.98,.29,.3,.65,.58,1.02,.8,.57,.33,1.14,.5,1.69,.54,.55,.03,.98-.08,1.3-.29,.26-.21,.39-.46,.39-.75"/>
        <path class="cls-2" d="M154.98,390.05c.26,.92,.37,1.78,.37,2.61,0,.16,0,.32-.01,.45,0,.15-.01,.24-.02,.32l-8.94-5.16c.04,.65,.16,1.28,.36,1.91,.2,.61,.48,1.21,.8,1.76,.33,.56,.7,1.05,1.12,1.5,.42,.45,.86,.82,1.34,1.1,.33,.19,.66,.32,.97,.39,.32,.1,.6,.11,.89,.1,.27,0,.52-.08,.74-.21,.22-.14,.38-.31,.49-.58l1.57,1.41c-.18,.35-.43,.63-.74,.83-.31,.2-.67,.33-1.08,.37-.41,.04-.86,0-1.36-.14-.49-.12-1-.34-1.54-.65-.82-.47-1.55-1.06-2.23-1.8-.67-.73-1.25-1.52-1.73-2.39-.47-.86-.85-1.76-1.12-2.69-.27-.94-.39-1.84-.39-2.71,0-.88,.13-1.61,.41-2.25,.27-.61,.65-1.06,1.14-1.38,.5-.3,1.07-.42,1.76-.37,.67,.05,1.41,.31,2.22,.77,.81,.47,1.55,1.07,2.22,1.8,.66,.74,1.23,1.52,1.7,2.37,.46,.85,.82,1.73,1.07,2.64Zm-8.63-3.33l7.29,4.21c-.03-.6-.16-1.22-.37-1.84-.21-.62-.48-1.21-.81-1.74-.32-.52-.69-1.02-1.12-1.45-.42-.45-.87-.81-1.36-1.1-.49-.28-.93-.44-1.36-.47-.43-.06-.81,0-1.14,.16-.32,.17-.58,.46-.78,.83-.21,.38-.33,.84-.36,1.41"/>
        <path class="cls-2" d="M132.33,368.78l-.02,8.53c0,1.13-.13,2.15-.35,3.04-.23,.9-.59,1.58-1.09,2.07-.5,.48-1.14,.73-1.94,.72-.79,0-1.75-.33-2.87-.97-1.18-.68-2.16-1.49-2.96-2.42-.79-.94-1.43-1.93-1.93-3.01-.47-1.05-.83-2.15-1.04-3.29-.2-1.15-.31-2.25-.3-3.33l.02-8.53,1.86,1.07-.02,8.53c0,.83,.07,1.68,.21,2.55,.14,.86,.37,1.69,.72,2.5,.33,.78,.77,1.53,1.33,2.22,.55,.69,1.26,1.29,2.09,1.77,.85,.49,1.56,.7,2.13,.66,.56-.06,1.03-.29,1.36-.7,.34-.41,.57-.97,.71-1.69,.15-.68,.22-1.44,.22-2.24l.02-8.53,1.86,1.07Z"/>
        <path class="cls-2" d="M138.71,376.72c.81,.47,1.56,1.05,2.27,1.76,.69,.71,1.29,1.45,1.77,2.21l-.82,.79c-.46-.74-.96-1.36-1.53-1.91-.56-.56-1.14-1.01-1.74-1.35-.66-.38-1.22-.54-1.67-.48-.48,.06-.7,.44-.71,1.14,0,.3,.05,.56,.14,.8,.07,.23,.24,.48,.44,.75,.2,.26,.47,.53,.79,.83,.33,.3,.72,.65,1.17,1.04,.7,.6,1.33,1.15,1.86,1.66,.53,.5,.96,.99,1.31,1.45,.36,.49,.61,.95,.78,1.41,.17,.46,.26,.95,.25,1.48,0,1.15-.38,1.86-1.17,2.08-.77,.23-1.8-.02-3.12-.78-.86-.5-1.7-1.13-2.54-1.94-.84-.78-1.57-1.65-2.16-2.58l.78-.95c.64,.93,1.27,1.7,1.91,2.34,.62,.65,1.29,1.17,1.99,1.57,.78,.45,1.4,.62,1.87,.53,.47-.07,.69-.44,.69-1.1,0-.3-.06-.58-.18-.87-.12-.28-.31-.58-.56-.87-.24-.31-.56-.63-.95-.98-.38-.34-.83-.74-1.34-1.18-.65-.56-1.2-1.05-1.67-1.5-.46-.45-.85-.89-1.16-1.29-.29-.4-.51-.83-.66-1.23-.13-.41-.2-.86-.2-1.35,0-.62,.11-1.11,.33-1.47,.21-.35,.51-.59,.89-.69,.37-.12,.8-.11,1.31,.02,.5,.1,1.04,.34,1.62,.67Z"/>
        <path class="cls-2" d="M170.95,395.34c.62,.36,1.13,.79,1.55,1.29,.41,.5,.74,1.05,.98,1.66,.25,.6,.43,1.27,.52,1.95,.11,.69,.15,1.41,.15,2.16l-.02,7.39-1.81-1.05,.02-6.93c0-1.31-.17-2.38-.51-3.19-.36-.82-.88-1.4-1.6-1.82-.38-.22-.74-.34-1.11-.39-.38-.06-.72-.03-1.06,.06-.32,.1-.62,.27-.87,.53-.26,.23-.43,.57-.56,.98l-.02,7.46-1.81-1.05,.04-12.38,1.65,.95v2.67c.42-.63,1.04-.97,1.84-1.03,.81-.04,1.68,.19,2.63,.74Z"/>
        <path class="cls-2" d="M82.13,332.66c3,1.73,5.41,5.9,5.4,9.34,0,2.38-1.19,3.75-2.9,3.8,3.41,3.21,5.9,8.35,5.89,12.66v4.9s-16.9-9.75-16.9-9.75v-4.9c.03-4.31,2.53-6.57,5.94-5.84-1.69-2.02-2.86-4.74-2.85-7.12,0-3.43,2.43-4.81,5.42-3.09Z"/>
        <path class="cls-2" d="M217.23,425.99c.26,.92,.37,1.78,.37,2.61,0,.16,0,.32-.01,.45,0,.15-.01,.24-.02,.32l-8.94-5.16c.03,.64,.17,1.29,.36,1.91,.2,.61,.47,1.2,.81,1.76,.33,.56,.7,1.05,1.12,1.5,.42,.45,.86,.82,1.34,1.1,.33,.19,.65,.31,.97,.39,.31,.09,.6,.11,.89,.1,.27,0,.52-.08,.74-.21,.22-.14,.38-.31,.49-.58l1.57,1.41c-.18,.35-.43,.63-.75,.82-.31,.2-.66,.34-1.07,.38-.41,.04-.86,0-1.36-.14-.49-.12-1-.34-1.54-.65-.81-.47-1.55-1.06-2.23-1.8-.67-.73-1.25-1.52-1.73-2.39-.47-.86-.85-1.76-1.12-2.69-.27-.94-.39-1.84-.39-2.71,0-.88,.13-1.61,.41-2.25,.27-.61,.65-1.06,1.14-1.38,.5-.3,1.07-.42,1.76-.37,.67,.05,1.41,.31,2.22,.77,.81,.47,1.55,1.07,2.22,1.8,.66,.74,1.23,1.52,1.7,2.37,.46,.85,.82,1.73,1.07,2.64Zm-8.63-3.33l7.29,4.21c-.03-.6-.16-1.22-.37-1.84-.21-.62-.48-1.21-.81-1.74-.32-.52-.69-1.02-1.12-1.45-.42-.45-.87-.81-1.36-1.1-.49-.28-.93-.44-1.36-.47-.43-.06-.81,0-1.14,.16-.32,.17-.58,.46-.78,.83-.21,.38-.33,.84-.36,1.41"/>
      </g>
      <g class="cls-7">
        <g class="cls-8">
          <g class="cls-15">
            <path class="cls-6" d="M423.05,827.47c-12.28-5.53-20.54,4.08-19.81,23.37,.69,18.26,9.65,36.13,21.93,41.66,12.98,5.85,20.52-4.59,19.83-22.85-.73-19.29-9.66-36.65-21.95-42.18m-6-295.42c-18.6-8.38-38.29-9.04-49.4-1.74l9.67,36.65c8.4-5.95,22.19-5.9,34.83-.21,22.13,10.48,34.03,33.27,35.04,59.87,.89,23.47-7.12,39.85-21.86,60.39-16.36,23.39-21.51,51.31-18.34,80.42l1.21,13.88,27.37,12.33-.87-13.72c-2.06-27.07,2.69-47.49,17.1-67.65,15.72-22.15,28.08-41.69,26.74-77.15-1.5-39.64-21.15-84.89-61.5-103.06"/>
          </g>
        </g>
      </g>
      <g class="cls-8">
        <g class="cls-13">
          <path class="cls-18" d="M369.1,817.38c-12.28-5.53-20.54,4.08-19.81,23.37,.69,18.26,9.64,36.12,21.93,41.66,12.98,5.85,20.52-4.59,19.83-22.85-.73-19.29-9.66-36.65-21.95-42.18m-6.01-295.43c-18.6-8.38-38.29-9.04-49.39-1.74l9.66,36.65c8.4-5.96,22.2-5.89,34.84-.2,22.13,10.48,34.03,33.27,35.03,59.87,.89,23.47-7.11,39.85-21.86,60.39-16.37,23.39-21.51,51.31-18.35,80.42l1.22,13.88,27.37,12.33-.86-13.72c-2.06-27.07,2.69-47.49,17.1-67.65,15.72-22.14,28.09-41.69,26.75-77.15-1.5-39.64-21.15-84.89-61.51-103.07"/>
        </g>
      </g>
    </g>
  </g>
</svg>